<?xml version="1.0" encoding="utf-8"?>
<svg version="1.1" id="Cuckoo" xmlns="http://www.w3.org/2000/svg" xmlns:xlink="http://www.w3.org/1999/xlink" x="0px" y="0px"
	viewBox="0 0 128 128" style="enable-background:new 0 0 128 128;" xml:space="preserve">
    <path d="M67.3,10.9c-2.6,1.1-4.9,2.4-7.3,4c-2.1,1.3-2.2,1.4-2.2,0.9c0-0.3,0.3-1.4,0.8-2.5c0.5-1.1,0.9-2.1,0.9-2.2
        c0-0.3-0.4-0.2-2.6,0.4c-5.3,1.4-12.7,8-15.3,13.5c-0.3,0.7-1.3,2-2.2,2.9c-2,2.1-3.3,4.1-4.4,6.6c-1.4,3.3-1.8,6.4-1.1,8.6
        c0.3,1.2,0.3,1.2-0.3,1.8c-0.4,0.4-1.5,0.9-2.9,1.4c-1.3,0.4-3,1.1-3.8,1.5c-5.7,2.8-9.5,8.1-9.5,13.3c0,1.8,0,1.9,0.4,1.3
        c1.3-1.8,1.3-1.9,5.1-2.1c1.9-0.1,5.7-0.5,8.5-0.8c5.8-0.6,5.6-0.7,8.3,1.8c3.9,3.7,6.7,8.7,6.7,12c0,3.1-2.2,7.6-6,12.4
        c-3.2,4-9.4,10.3-12.3,12.6c-0.8,0.6-0.8,0.7-0.5,0.9c0.2,0.1,0.8,0.2,1.3,0.2l0.9,0l-2.4,2.4c-3.3,3.4-5.7,6.9-7.5,10.7
        c-0.4,1-0.8,1.8-0.7,1.7c0.1-0.1,1.6-2.1,3.4-4.4c4.3-5.7,5.9-7.6,9.5-10.8c2.9-2.6,5.3-5.2,6.2-6.7c0.2-0.4-0.8,0.5-2.3,2
        c-2.5,2.5-4.3,4.1-4.3,3.7c0-0.1,0.6-0.8,1.4-1.6c1.3-1.4,1.4-1.8,0.3-1c-0.8,0.5-0.3,0,0.7-0.8c0.5-0.4,2.1-1.8,3.6-3.2
        c2.6-2.4,7.1-6,6.5-5.3c-4.2,5.5-8,10.4-10.8,13.4c-5.5,6.1-8.7,10.4-10.3,13.7c-0.9,1.7-1.1,2.5-0.3,1.4c0.2-0.3,2.4-3.1,4.9-6
        c7-8.5,12.5-15.5,15.5-19.6c1.5-2,3.6-4.8,4.6-6c3.8-4.7,4.6-6.5,4.6-10.1c0-1.8-0.1-2.7-0.6-4.2c-0.4-1-0.6-1.9-0.6-2
        c0,0,0.5,0.4,1,1c1.2,1.3,2.4,4,2.7,5.8c0.5,2.4,0.3,6.5-0.3,8.9c-0.1,0.3,0.1,0.1,0.3-0.3c0.9-1.7,1.3-4.1,1.2-7.3
        c-0.1-1.6-0.2-3.2-0.3-3.6c-0.3-1.3,1.8,3.4,2.2,4.9c0.4,1.4,0.5,2.5,0.5,6.5c0,4.2,0,4.6,0.3,3.6c0.6-2.9,0.2-9.5-0.8-12.4l-0.4-1
        l0.5,0.5c2.6,2.2,4.6,4.2,5.1,5c0.3,0.6,0.8,1.8,1.1,2.8l0.5,1.8l0.2-4.3l0.2-4.3l0.8,0.5c1.2,0.7,1.5,0.5,1.5-1
        c0-2.5-2.4-6.2-5.6-8.5c-0.8-0.6-2.9-1.9-4.6-2.9c-1.7-1-3.9-2.4-4.9-3.1c-1-0.7-1.9-1.3-1.9-1.2c0,0-0.1,0,0,0
        c0-0.1-0.2-0.4-0.6-0.7l-0.6-0.6l1.3,0.1c0.9,0.1,1.5,0.3,2.1,0.7c1.1,0.8,2.6,1.8,3.6,2.3c1.1,0.5,0.8,0.3-1.5-1.4
        c-2-1.4-2.4-1.8-1.8-1.8c0.2,0,1,0.5,1.8,1.1c1.8,1.4,3.8,2.3,6.9,3.1c4.4,1.2,6.7,2.5,8.8,5.3c1.3,1.7,3.3,5.7,3,5.9
        c-0.3,0.1-4.1-1.9-5.5-2.9L66.9,68l0.6,1.3c0.7,1.5,1.7,4.6,2.2,6.8l0.4,1.5l-0.1-1.9c-0.1-1.1-0.3-2.6-0.6-3.4L69,70.8l0.6,0.4
        c1.2,0.7,1.8,1.4,3.5,4.1c1.9,2.9,3.2,5.3,5.4,10.3c1.5,3.5,4,8.4,5.3,10.4c1.5,2.3,0.7,0.4-2.1-5c-1.6-3.1-3.5-7-4.3-8.7
        c-1.5-3.2-3.1-6.2-4.7-8.6c-0.6-1-0.8-1.3-0.5-1.2c0.2,0.1,0.9,0.2,1.4,0.3c1.6,0.1,1.6-0.3-0.2-3.8l-1.6-3.1l1.1,0.2
        c0.6,0.1,1.2,0.2,1.4,0.3c1,0.4-1-1.9-2.8-3.3c-1.1-0.8-2.6-1.7-2.6-1.6c0,0.1,0.9,0.8,2.1,1.8c1.1,0.9,2.1,1.8,2.3,2
        c0.2,0.4,0.1,0.4-0.7,0.3c-0.7-0.1-1.3-0.5-2.2-1.4c-2.5-2.4-4.7-3.5-8.6-4.4c-2.6-0.6-5.2-1.8-6.5-2.9c-0.5-0.4-0.7-0.7-0.5-0.6
        c1.5,0.4,7,1.6,8.8,1.8c2.2,0.3,4.9,1.2,7.9,2.7c1.1,0.6,1.3,0.6,0.8,0.2c-0.8-0.7-3-1.8-4.3-2.2c-0.6-0.2-1-0.4-0.9-0.4
        c0,0,1.7,0,3.6,0.2c6,0.4,9.6,1.6,12.3,4.2c2.7,2.5,4.5,5.7,6.2,11.1c1.2,3.9,2.6,7,3.7,8.3c0.6,0.7,0.6,0.7-0.2-0.6
        c-1.3-2-2.1-3.9-3.2-8c-1.8-6.9-5-11.6-9.2-13.7c-2.3-1.1-4.8-1.7-9.7-2.1c-2.4-0.2-4.5-0.4-4.7-0.4c-0.6-0.1,2-0.4,3.6-0.5l1.7,0
        l-2.2-0.2c-1.2-0.1-3.2-0.1-4.4,0c-2.8,0.2-6.5-0.3-7.8-0.9c-0.6-0.2-0.8-0.4-0.6-0.4c5.7,1.5,10.3,0,12.9-4.4
        c1.3-2.1,2.3-3.1,3.7-3.8c1.1-0.6,1.4-0.6,3.8-0.6c4.9,0,9.1,1.7,12.3,4.7c1.5,1.4,2,2.1,2.9,4c0.9,1.9,1.1,2.5,1.1,3.5
        c0,0.7-0.1,3.3-0.2,5.8c-0.2,3.9-0.2,4.3-0.4,3c-0.1-0.9-0.1-2.9,0-4.6c0.1-1.7,0.1-3,0-2.9c-0.1,0.1-0.9,5.4-0.9,6.1
        c0,0.2-0.1,0.3-0.2,0.3c-0.2,0-0.8-3.2-1.4-7.4c-0.4-2.8-0.6-3.9-0.6-2.6c0.1,4.2,0.6,9.6,1.1,11.8c2,8.8,3.7,12.3,8.4,18.3
        c2.8,3.5,6.9,9.6,6.9,10.3c0,0.1-1.8-1.7-3.9-3.9c-2.1-2.3-3.9-4.1-4-4.1c-0.3,0,1.2,1.8,4.9,6.1c3.9,4.5,5.5,7,7,10.9
        c0.9,2.4,0.9,1.3,0.1-2c-1.3-5.5-4.5-12.5-10.5-23.1c-1.4-2.5-2.9-5.4-3.3-6.4c-1.4-3.5-1.7-7.7-1.2-14.3c0.2-2.9,0-7.4-0.4-8.6
        c-0.1-0.3,0.1-0.2,0.8,0.2c1,0.7,3.6,2.1,3.8,2.1c0.1,0-0.4-0.9-0.9-2c-0.6-1.1-1.5-3-2-4.1c-1.3-3.1-2.3-5.1-3.6-6.8l-1.1-1.5
        l0.7-0.1c1.1-0.2,2.2-0.6,2.2-0.7c0-0.1-0.2-0.4-0.4-0.8L93.8,37l1.2-0.1c1.8-0.2,3.8-1.4,5.4-3.1l1.4-1.5l-1,0.1
        c-1.8,0.3-7.4,0.6-10,0.6c-2.9,0-9-0.6-12.1-1.1c-1.2-0.2-3.7-0.5-5.7-0.5c-1.9-0.1-3.5-0.2-3.5-0.2s1.9-0.3,4-0.6
        c4.3-0.6,7.7-1,14.7-1.3c5.7-0.3,9.3-0.9,12.8-2.2c1.5-0.5,2.8-0.9,2.9-0.9c0,0.1-0.4,0.4-1.1,0.7c-0.6,0.3-1,0.6-0.7,0.6
        c0.4,0,5.1-1.3,6.3-1.8c0.9-0.4-0.1,0.6-2.1,1.9c-3.4,2.2-7.8,3.7-13.2,4.2c-1.3,0.1-2.4,0.3-2.5,0.4c-0.3,0.3,8.2-0.1,9.8-0.5
        c3.3-0.7,7.2-2.8,9.4-5c0.6-0.6,1.9-2.2,2.8-3.7l1.8-2.6l-0.9,0.4c-0.5,0.2-1.8,0.9-3,1.5c-3.6,2-4.6,2.4-8.6,3.8
        c-5.7,1.9-8.5,2.3-23.2,3.4c-4.2,0.3-8.6,0.9-12.6,1.7c-9.2,1.8-12.5,3.1-15.3,6.1c-1.3,1.4-1.9,2.3-2.4,4c-0.5,1.7-0.4,1.7,0.5-0.1
        c1.7-3.3,4.4-5.9,7.4-7c4.1-1.5,7.8-2,13.8-1.9c6.8,0.2,10.6,0.9,14.4,3c1.1,0.6,2.3,1.2,2.6,1.5c0.6,0.4,0.6,0.4-1.4,0.6
        c-1.4,0.1-2.8,0.4-4.4,0.9L79,39.3l-3.8-0.6c-7.6-1.1-12.2-0.7-18.3,1.5c-6.3,2.3-9.1,4.1-10.7,6.8c-1.1,1.9-2.5,2.5-4.3,1.7
        c-1.2-0.5-2-1.5-3-3.6c-0.6-1.3-0.7-1.6-0.6-4.5c0-1.7,0.1-3.4,0.3-3.8c0.2-0.5,0.2-0.1,0.2,1.8c0,1.7,0.1,2.7,0.3,3
        c0.3,0.5,0.3,0.5,0.1-0.1c-0.1-0.3-0.2-1.4-0.2-2.4c0-1.6,0.2-2.4,1.2-5.5c1.4-4.1,3.3-8.3,4.8-10.5c1.2-1.8,4.2-4.7,6.9-6.8
        c2.1-1.7,4.9-3.3,4.9-2.9c0,0.1-0.3,1.2-0.7,2.3c-0.4,1.1-0.7,2.2-0.7,2.3s0.3,0,0.7-0.2c0.4-0.3,0.7-0.4,0.7-0.3
        c0,0.4-0.8,1.3-2,2.1c-0.7,0.5-1.6,1.2-2,1.5l-0.7,0.6l0.7-1.4c0.9-1.7,1.1-2.5,0.8-3c-0.2-0.4-2,1.5-3.7,4c-0.6,1-1.8,2.7-2.7,3.7
        c-2.4,3.1-4.3,6.1-5.6,8.7c-1.2,2.4-2.3,5.1-2.1,5.3c0,0,0.4-0.6,0.8-1.4c2.6-5.2,8.8-12.6,13.3-15.5C57,19.9,63.3,17.3,69,16
        c2.5-0.6,7.8-0.9,9.6-0.5l1.1,0.2l-1.2,0.9c-1.7,1.2-3.7,2.3-8.6,4.4c-14.7,6.3-21.7,11-25,16.9c-0.1,0.2,1.2-1,2.8-2.6
        c2.1-2.1,3.7-3.5,5.5-4.7c4.1-2.7,10.7-5.9,16.6-8c1.5-0.5,4.7-1.7,7.2-2.5c4.1-1.5,7.4-2.3,9.4-2.3h0.9l-0.8,0.9
        c-1.7,1.8-4.1,3.1-6.9,3.9L77.8,23l2.9-0.1c2.5-0.1,2.9-0.1,2.6,0.2c-0.7,0.9-2.6,1.6-4.9,1.9C71,25.9,63.9,28,56.6,31.6
        c-8.4,4.1-12.2,7.1-13.4,10.8c-0.5,1.3-0.6,5.1-0.2,4.5c0.1-0.2,0.2-0.7,0.2-1.2c0-2.3,2.1-5.7,4.8-7.9c3.8-3.1,12-7,18.5-8.9
        c6.6-1.9,9.8-2.2,17.3-1.7c7.7,0.5,11.7,0.1,16.9-1.6c4-1.3,6.6-2.7,8.8-4.6c0.8-0.7,3.4-3.7,3.4-4c0-0.1-1.4,0.2-3.1,0.7
        c-5.4,1.6-10.6,3-10.8,2.8c-0.1-0.1,0.1-0.4,0.4-0.7c0.6-0.6,2.2-3.8,2.1-4c0,0-1.2,0.2-2.4,0.5c-1.3,0.3-3.3,0.7-4.4,0.8
        c-2,0.3-5.3,0.4-5.3,0.2c0,0,0.2-0.6,0.5-1.2c0.3-0.6,0.5-1.2,0.4-1.2c0,0-0.6,0.1-1.3,0.4c-1.1,0.4-7.3,1.3-7.5,1.1
        c0,0,0.1-0.5,0.4-1.1c0.3-0.6,0.4-1,0.3-1.1c-0.8-0.5-3.5-0.8-7.2-0.7c-2.3,0-4.1,0-4.1-0.1c0-0.5-0.2-0.5-1.7,0.1
        c-0.9,0.3-1.7,0.6-1.8,0.6c-0.1,0,0.2-0.7,0.7-1.5c1.4-2.2,1.5-2.5,1.2-2.5C69.3,10.1,68.3,10.5,67.3,10.9z M65.4,14.4
        c-0.3,0.4-1,1-1.5,1.3c-1.4,0.7-5.1,2.2-5.2,2.1c-0.1-0.1,3.5-2.6,5.1-3.4C65.7,13.4,66.1,13.4,65.4,14.4z M98.8,17.9
        c0,0.1-1,0.6-2.3,1.2c-2.2,1-5.7,2-8.7,2.4l-1.3,0.2l1-1.3l1-1.3l3.3-0.1c2.1-0.1,3.9-0.3,4.9-0.6C98.8,17.7,98.8,17.7,98.8,17.9z
        M109.1,19.8c-0.3,0.3-1.4,1.2-2.5,1.9C99.8,26.2,91.3,28,85,26.1l-1-0.3l2.3-0.3c3.1-0.4,6.9-1.3,9.6-2.4c1.2-0.5,4.7-1.5,7.6-2.3
        c3-0.8,5.5-1.5,5.5-1.6c0,0,0.2-0.1,0.3-0.1C109.6,19.2,109.4,19.5,109.1,19.8z M97.2,20.4c-0.7,0.8-4.1,2.3-6.7,3
        c-2.1,0.5-8.2,1.4-8.5,1.2c0,0,0.4-0.3,1.1-0.6c0.6-0.3,1.6-0.9,2-1.3c0.8-0.6,1.1-0.7,2.4-0.7c2.1,0,5.6-0.6,7.7-1.3
        C97.5,19.8,97.8,19.8,97.2,20.4z M39.1,32c-0.8,2.1-1.8,5.9-1.7,6.1c0.1,0.1,0.1-0.1,0.1-0.3c0-0.2,0-0.4,0.1-0.3
        c0,0.1-0.1,1.2-0.3,2.5c-0.3,2.2-0.4,2.5-1.2,3.2c-0.5,0.5-0.9,0.7-1,0.6s-0.2-1.2-0.3-2.3c-0.1-2.5,0.4-4.6,1.8-7.2
        c0.7-1.4,2.5-3.8,2.8-3.8C39.6,30.5,39.4,31.2,39.1,32z M91.8,33.8c2.7,0.1,4.8,0.2,4.6,0.3c-0.2,0-1.2,0.3-2.4,0.6L91.9,35l2.2-0.1
        c1.2-0.1,2.4-0.2,2.8-0.3c0.5-0.1,0.4,0-0.2,0.3c-1,0.5-4.5,0.9-5.7,0.7l-0.9-0.1l1.1,1l1.1,1l-1.7,0h-1.6l-1.4-1.3
        c-0.7-0.7-1.9-1.6-2.5-2.1l-1.2-0.8l1.6,0.1C86.2,33.5,89.1,33.7,91.8,33.8z M90,40.7c1.4,1.5,2,2.3,3.1,4.5c0.7,1.5,1.3,2.8,1.3,3
        c0,0.1-0.3-0.1-0.7-0.6c-0.4-0.5-0.7-0.7-0.7-0.6c0,0.4,0.6,1.2,1.4,2.2c1,1.1,0.6,0.9-1.1-0.4c-0.6-0.6-1.1-0.8-0.9-0.6
        c0.6,0.7,1,3.1,1.1,6c0.1,1.7,0.1,2.8,0,2.4c0-0.3-0.2-0.5-0.3-0.5s-0.1-0.2-0.1-0.4c0.1-0.2,0-0.3-0.1-0.2
        c-0.1,0.1-0.7-0.7-1.2-1.8c-0.7-1.5-1.4-2.4-2.6-3.7c-2.9-3-6.4-4.3-12.5-4.7c-3.9-0.3-5.6-0.8-9.3-2.7c-2.2-1.1-2.6-1.2-4.4-1.3
        c-3.1-0.2-5.5,0.4-9.1,2.2c-3.1,1.5-5.6,2.5-5.8,2.3C48,45.3,50,44,51.8,43.1c4.8-2.3,8.8-3.4,13.5-3.8c6.1-0.5,14,0.5,18,2.3
        l1.4,0.6l-0.6-0.6c-0.3-0.3-1.2-0.9-2-1.3c-0.8-0.4-1.3-0.7-1.1-0.7c0.2,0,1-0.2,1.8-0.4c0.8-0.2,2.4-0.3,3.5-0.3l2,0L90,40.7z
        M57.1,44.1c-1.4,1.4-1.5,3.4-0.1,4.2c0.4,0.2,0.7,0.5,0.7,0.6c0,0.3-1.2,0.5-1.7,0.2c-0.6-0.3-1.4-2-1.4-2.7c0-0.6,1.1-2,2-2.6
        C57.8,42.9,58,43.1,57.1,44.1z M62.1,43.9c0.5,0.4,0.6,1.5,0.1,1.9c-0.2,0.2-0.6,0.3-1,0.3c-1.1,0-1.5-1.3-0.7-2.2
        C61,43.4,61.5,43.3,62.1,43.9z M71.8,45.5l1.7,0.4l-1.2,0.6c-1.3,0.6-2,1.4-3.3,3.6c-1.8,3.2-4.6,4.9-8.2,5c-1.5,0.1-2.5,0-3.5-0.3
        c-1.1-0.3-1.6-0.4-2.6-0.2c-1.9,0.4-4,0.3-5.5-0.2c-1.2-0.5-1.5-0.5-3.4-0.2c-1.1,0.1-4.2,0.5-6.8,0.7c-6.8,0.7-10.7,1.2-13.3,1.6
        c-2.7,0.4-3.1,0.4-1.9,0c2.6-1,16.9-2.8,22.1-2.8l3.4,0l-0.9-0.6c-0.5-0.3-2.2-1-3.9-1.5c-1.7-0.5-3.7-1.3-4.6-1.7
        c-1.4-0.7-1.6-0.7-1.9-0.4c-0.5,0.5-2.8,0.9-4.7,0.9c-1.2,0-2.1,0.1-3.8,0.7c-4.5,1.5-7.6,3.7-9.8,6.7c-1.1,1.6-1.5,1.8-0.8,0.5
        c1.3-2.6,4.6-5.3,10.5-8.5c0.9-0.5,2.7-1.6,4-2.4c3-1.9,3.1-1.9,5.4,0.5c2,2.2,3,2.7,5.3,2.4c5.5-0.5,5.7-0.5,8.2,1.1
        c0.9,0.5,2.4,1.4,3.3,1.8c1.6,0.8,2,0.9,3.6,0.9c3.3,0,5.7-1.3,7.7-4.3c1.4-2.1,1.8-2.4,3.5-3.1c1.5-0.6,1.5-0.6-0.4-1.2
        c-1.3-0.4-3-1.3-3.2-1.7c-0.1-0.1,0.6,0.2,1.5,0.6C69.4,44.8,70.9,45.3,71.8,45.5z M66.2,46.7c0,3.7-3.2,6.3-7.2,6.1
        c-1.2-0.1-1.7-0.2-2.4-0.8c-1.2-1-2.2-2.4-2.4-3.5c-0.1-0.7-0.1-0.7,0.1-0.2c1.1,3.3,3.7,4.5,7.3,3.5c0.9-0.3,1.6-0.7,2.5-1.6
        c1.4-1.5,1.9-2.9,1.7-4.7c-0.1-1-0.1-1.1,0.1-0.7C66.1,45,66.2,45.9,66.2,46.7z M48,57.5c1.1,0.6,3.5,2.1,5.4,3.3
        c1.8,1.2,4.5,2.9,5.9,3.8c4.3,2.6,7.1,5.8,7.1,8.3c0,0.7-0.1,1-0.3,1c-0.4,0-1.8-1.6-2.3-2.4c-0.4-0.7-0.5-0.5-0.2,0.6
        c0.2,0.9,0.7,4.6,0.6,4.7c-0.1,0.1-1.6-2.1-3.2-4.7c-0.8-1.3-1.6-2.5-1.7-2.6c-0.1-0.1,0.3,0.9,0.8,2.1c0.6,1.2,1.1,2.5,1.2,2.8
        c0.1,0.3-2.3-1.9-5.3-4.9c-3.8-3.8-6.1-6.3-7.6-8.2c-1.2-1.6-2.3-3-2.4-3.1c-0.7-0.6-0.6-0.1,0.1,1.1l0.7,1.2l-1.9-1.7
        c-1.1-0.9-1.9-1.7-1.9-1.8c0-0.2,0.9-0.3,2.2-0.4C45.7,56.4,46.5,56.7,48,57.5z M49.3,57.2l0.8,0.7l-0.7-0.4
        c-1.5-0.9-1.7-1.1-1.2-1.1C48.4,56.4,48.9,56.8,49.3,57.2z M42.5,59.9c0.6,0.5,2.6,4.4,2.4,4.6c-0.1,0-0.6-0.6-1.3-1.4
        c-0.7-0.8-1.8-2.1-2.6-2.8L39.7,59l1.2,0.2C41.5,59.3,42.2,59.6,42.5,59.9z M45.7,61.2c3.4,2.7,5.1,5.5,5.5,8.7l0.1,1.4l-1.8-2.6
        c-2.2-3.1-2.3-3.3-1.5-1.6c0.4,0.7,0.6,1.4,0.6,1.6c0,0.2,0,0.5,0,0.8c0,0.4,0.1,0.4,0.3,0.1c0.3-0.5,1.8,2.7,2.1,4.3
        c0.5,3.2-2.8,8.6-7.1,11.8l-1.1,0.8l1.4-1.4c0.7-0.8,1.8-2.3,2.5-3.3c1.4-2.4,2.1-3.7,1.9-3.7c-0.1,0-0.9,1-1.8,2.3
        c-0.9,1.2-1.7,2.3-1.8,2.3c0,0,0.4-0.9,1.1-1.9c1.6-2.6,2.2-4.3,2.4-6.4c0.1-2.3-0.2-3.8-1.6-6.7c-1.2-2.6-3.4-7.4-3.4-7.7
        C43.3,59.4,43.8,59.6,45.7,61.2z M93.7,74.5c0.4,1,2,3.9,3.7,6.6c3.1,5,5.1,8.6,4.5,8c-0.9-0.9-4.1-4.9-5.3-6.5
        c-2.4-3.3-3.8-7.3-4.1-11l-0.1-1.8l0.3,1.5C92.8,72,93.3,73.5,93.7,74.5z M30.6,98.2c-0.5,0.5-1,0.6-1,0.4c0-0.1,1.2-0.8,1.4-0.8
        C31.1,97.8,30.9,98,30.6,98.2z"/>
    <path d="M33.6,48.4c-1.4,0.4-1.2,0.6,0.6,1c1.6,0.3,2.6,0.2,2.6-0.4C36.8,48,35.7,47.8,33.6,48.4z"/>
    <path d="M83.5,65.7c1.1,1.9,1.4,2.8,2.3,6.3c0.4,1.6,1.1,3.9,1.6,5c1,2.3,6.9,14.2,7.3,14.6c0.4,0.4,0-0.8-1.5-4.1
        c-3.5-7.5-5.5-12.4-6.3-15.7c-0.8-2.9-1.8-4.9-3.1-6.4l-1.1-1.2L83.5,65.7z"/>
    <path d="M74.5,69.4c1.1,2,5.6,8.3,9.7,13.4c3.3,4.2,4.6,6.2,7.2,11c3.2,6.2,4.7,10.4,5.3,14.9l0.3,2.3l0.3-1.3
        c0.4-1.7,0.4-3.4-0.1-5.8c-1.2-6.3-3.9-11.4-9.4-17.9c-3.6-4.2-6.6-8-10.4-13.1C74.2,68.6,74.1,68.5,74.5,69.4z"/>
    <path d="M73,80.9c2.5,4.2,4.2,8.4,5,12c0.7,3.3,1.8,13.7,1.6,14c-0.1,0.1-0.5-0.2-0.9-0.7c-0.7-0.9-0.8-1-0.9-4.2
        c0-1.8-0.2-3.6-0.3-4.1c-0.2-0.6-0.2,0.1-0.1,2.4c0.1,2.2,0,3.3-0.1,3.3c-0.6,0-2.4-2.5-4.8-6.5c-0.7-1.1-1.5-2.4-1.8-2.8
        c-0.9-1.1,1.2,2.8,3.4,6.1c1,1.5,1.8,3.1,1.9,3.6c0.2,0.9-0.4,5.2-0.8,5.6c-0.1,0.1-0.6-0.9-1.1-2.5c-1.2-3.4-4.3-11.5-5.1-13
        c-0.3-0.6-1.1-2-1.7-3s-1.7-3.1-2.5-4.7c-0.8-1.6-1.4-2.8-1.4-2.7c0,0.4,1.1,3.1,2.2,5.4c1.1,2.2,1.4,3.2,2,6
        c0.9,4.3,0.9,7.5,0.1,9.7c-0.5,1.5-2.3,4.9-3.2,6l-0.5,0.6l-0.4-0.9c-0.6-1.3-2.4-8.8-3-12.3c-0.3-1.7-0.6-4.7-0.7-6.8l-0.2-3.8
        l-0.2,2.1c-0.4,4.5,1.1,14.4,3.1,20.7l0.9,2.7l0.6-0.5c0.8-0.8,2.1-2.8,3.3-5.2l1-2l0.5,1.2c0.3,0.6,0.6,1.2,0.7,1.2
        c0.4,0,0.3-0.6-0.3-1.9c-0.5-1.2-0.6-1.4-0.4-2.5c0.3-1.6,0.1-3.9-0.7-7.3c-0.4-1.5-0.6-2.8-0.6-2.9c0.2-0.2,7.1,17.1,7.1,18
        c0,1.6,1.5-1.8,1.9-4.2l0.2-1.3l1.1,1.4c0.6,0.8,1.5,2.1,2,2.9l0.9,1.4l0.1-4.2c0.1-6.4-0.7-10.8-3-17.2c-1.6-4.3-3.8-8.6-5.6-10.6
        C71.8,78.9,72,79.3,73,80.9z"/>
    <path d="M69.3,79.6c0,0.2,0.2,1.3,0.4,2.5c0.6,3,1.4,8.3,1.6,10.8c0.1,1.2,0.3,2,0.4,2c0.3-0.2,0.2-4.3-0.1-6.7
        C71,85.2,69.3,78.7,69.3,79.6z"/>
    <path d="M52.4,87.3c-0.9,2.1-2.2,6.3-2.7,9c-1.1,5.9-1.9,12.4-1.8,14.6c0.1,1.5,0.1,1.4,0.4-1.3c0.9-8,2.6-16.6,4.3-21.8
        c0.4-1.2,0.7-2.1,0.6-2.1C53.2,85.7,52.8,86.4,52.4,87.3z"/>
    <path d="M56.8,91.5c-1,2.2-3.7,8.6-5.3,12.9c-0.9,2.2-2.2,6.4-2.1,7c0,0.1,0.6-1.2,1.3-2.9c0.7-1.7,1.5-3.7,1.9-4.3l0.6-1.2l0.1,1
        c0.4,2.4,2.8,9,3.2,8.7c0,0-0.2-0.8-0.5-1.8c-1.2-3.4-1.8-6.5-1.7-8.9c0.1-2.2,0.6-3.8,3-10.4c0.4-1.1,0.7-2.1,0.7-2.1
        C57.8,89.3,57.3,90.3,56.8,91.5z"/>
    <path d="M48,93.6c-1.3,1.5-8,12.5-7.8,12.7c0.1,0.1,0.3-0.2,0.6-0.7c0.2-0.4,0.9-1.6,1.6-2.5s1.7-2.7,2.4-3.8c0.7-1.2,1.8-3,2.5-4.1
        C48.6,93.2,48.8,92.8,48,93.6z"/>
    <path d="M42.4,96.3c-1.4,1.6-4.6,5-7.1,7.6c-4.7,4.8-6.6,7.3-7.1,9.3c-0.2,0.6-0.2,1.2-0.2,1.2c0.1,0,0.4-0.5,0.8-1.2
        c1.6-2.9,4.9-7.1,8.8-11.3c4-4.3,7.8-8.6,7.5-8.6C45.1,93.4,43.8,94.7,42.4,96.3z"/>

    <style>
        path { fill: #000; }
        @media (prefers-color-scheme: dark) {
            path { fill: #FFF; }
        }
    </style>
</svg>
